<?xml version="1.0" encoding="utf-8"?>
<!-- Generator: Adobe Illustrator 27.3.0, SVG Export Plug-In . SVG Version: 6.00 Build 0)  -->
<svg version="1.1" id="Layer_1" xmlns="http://www.w3.org/2000/svg" xmlns:xlink="http://www.w3.org/1999/xlink" x="0px" y="0px"
	 viewBox="0 0 3118.4 3118.2" style="enable-background:new 0 0 3118.4 3118.2;" xml:space="preserve">
<style type="text/css">
	.st0{fill:#FFFFFF;}
	.st1{fill:#A14631;}
</style>
<rect x="483" y="489.7" class="st0" width="2250.2" height="2270.5"/>
<path class="st1" d="M3059.4,1559.1c0-12.5-0.2-24.9-0.5-37.3c0,25.5,0,51.3-0.1,77.3C3059.3,1585.8,3059.4,1572.5,3059.4,1559.1z"
	/>
<path class="st1" d="M59.4,1532c-0.2,9-0.2,18.1-0.2,27.2c0,9.1,0.1,18.1,0.2,27.1C59.4,1568.2,59.4,1550.1,59.4,1532z"/>
<path class="st1" d="M1559.3,3059.3c12.7,0,25.4-0.2,38-0.5c-25.8,0-51.6,0-77.4,0C1533,3059.1,1546.1,3059.3,1559.3,3059.3z"/>
<path class="st1" d="M1594.2,59.4c-11.6-0.3-23.3-0.4-34.9-0.4c-11.6,0-23.2,0.1-34.7,0.4c14.4,0,28.9,0,43.4,0
	C1576.8,59.4,1585.6,59.4,1594.2,59.4z"/>
<path class="st1" d="M3118.3,1600.7c0-27,0-53.8,0.1-80.4C3098.1,689,2427.2,19,1595.6,0c-9,0-18.1,0-27.3,0c-15.1,0-30.2,0-45.1,0
	C688,19,14.9,694.6,0,1530.9c0,18.8,0,37.6,0,56.5C14.8,2422,685.3,3096.7,1518.3,3118.1c26.8,0,53.7,0,80.5,0
	C2428,3097.6,3096.6,2429.7,3118.3,1600.7z M2575.5,1573.5c-0.4,419.2-0.5,454-2.2,468.9c-5.7,51.5-13.3,87.4-27.7,131
	c-9.5,28.5-17.9,48.8-31.9,76.9c-29.6,59.3-63,105.3-110.5,152.9c-46.2,46.1-92.6,79.9-148.8,108.4c-75.4,38.3-151.1,58.4-236.5,63
	c-31.2,1.8-920.9,0.8-937.2-0.8c-37.9-4.1-62.7-8.2-93.4-15.9c-87.7-21.7-167.5-62.7-238.3-122.4c-16.7-14.1-52.6-50-66.7-66.7
	c-76.7-91-123.7-199.6-136.4-315.5c-3.7-34.2-3.8-47.3-3.5-508.4c0.4-491.1,0-457.7,5.5-496.9c15.5-110.1,61.1-211.8,133.6-297.8
	c14.3-17,49-51.9,66-66.5c97.3-83.2,218.5-132.3,346.2-140.2c20.5-1.2,907.2-1.4,927.8-0.1c128.9,7.9,244.4,53.7,344.6,136.8
	c17.5,14.5,58.2,55.3,72.5,72.7c74.9,90.9,119.3,194,132.9,307.8C2575.8,1096.7,2575.8,1102.8,2575.5,1573.5z"/>
<path class="st1" d="M2316.4,973.8c-59-117.9-174.6-195.5-306.3-205.8c-16.4-1.2-888-1.2-904.1,0.1c-28.2,2.3-62.7,9.5-90.5,18.9
	c-116,39.6-205.1,133.2-239,251.3c-7.1,24.8-11.5,50.6-13.5,78.2c-1.4,19.5-1.3,875.9,0,895.5c6.5,91.3,44.1,174.1,108.5,238.6
	c62.3,62.5,139.7,99.1,229.5,108.6c18.5,1.9,897.5,1.9,916,0c91.6-9.7,171.6-48.3,234-112.8c58.5-60.6,93.6-136.3,103.2-222.9
	c1.9-17.7,1.9-901.2,0-919C2348.8,1055.9,2337,1014.9,2316.4,973.8z M2059.5,1649c-15.1,89.9-54.9,174.6-115.3,245.5
	c-11.9,13.9-44.4,46.1-58.2,57.6c-63.3,52.7-134.4,88.3-212,106.3c-115.4,26.6-236.9,12.2-342.1-40.5
	c-48.7-24.3-91.5-55.5-131.4-95.4c-20.2-20.1-33.6-35.6-49.5-57c-92.7-124.4-122.7-285.9-81.4-436.9
	c13.5-49.3,36.9-100.6,65.8-144.4c29.1-44.2,70.1-88.4,113.1-121.8c53-41.3,116.3-72.6,180.6-89.4c35.6-9.2,66.4-14,106.4-16.3
	c12.4-0.8,37.4-0.6,52.5,0.3c33.2,2.1,60.4,6.1,90.5,13.5c79.4,19.3,149.8,55.6,212.5,109.4c15.6,13.4,47.1,45.7,60.1,61.6
	C2045.1,1356.4,2084.1,1503,2059.5,1649z M2199.7,1059.6c-9.9,47.1-44.9,83.2-90.6,93.5c-69.6,15.6-138.4-34.9-144-105.9
	c-2.1-27.4,4.4-52.8,19.4-75.3c17.8-26.7,46.6-45.8,77.7-51.4c10.2-1.8,30.7-1.8,41.4,0c48.6,8.5,87.7,47.6,96.5,96.5
	C2202,1027.6,2201.8,1049.6,2199.7,1059.6z"/>
<path class="st1" d="M1814.1,1357c-10.1-12.8-36.1-38.6-49.6-49.4c-38.8-30.9-85.6-53.4-133-64c-24.2-5.5-37.1-6.8-68-7.1
	c-15.9-0.2-32.8,0.1-37.5,0.6c-65.4,7.2-121.6,30.4-174,71.8c-13.2,10.4-39.8,37.3-50.4,51.1c-32.1,41.4-54,88.2-64,137
	c-5.1,24.8-6,35.5-6.1,66c0,30.9,0.8,40,5.6,64.7c25.9,133.1,132.9,237.2,266.9,259.7c143.2,24.1,284.1-47.5,348.8-177.1
	c15.7-31.4,25.5-62.9,31.3-100.3c2-12.7,2.3-18.4,2.3-45.5c0.1-24.6-0.3-33.6-1.7-43.4C1875.7,1458.5,1853.1,1406,1814.1,1357z"/>
</svg>
