<?xml version="1.0" encoding="utf-8"?>
<!-- Generator: Adobe Illustrator 27.3.0, SVG Export Plug-In . SVG Version: 6.00 Build 0)  -->
<svg version="1.1" id="Layer_1" xmlns="http://www.w3.org/2000/svg" xmlns:xlink="http://www.w3.org/1999/xlink" x="0px" y="0px"
	 viewBox="0 0 2999.8 2999.5" style="enable-background:new 0 0 2999.8 2999.5;" xml:space="preserve">
<style type="text/css">
	.st0{fill:#FFFFFF;}
	.st1{fill:#A14631;}
</style>
<rect x="423.6" y="430.3" class="st0" width="2250.2" height="2270.5"/>
<g transform="translate(0.000000,5000.000000) scale(0.100000,-0.100000)">
	<path class="st1" d="M6771.2,49993c-651-24-1326-73-1665-120c-597-83-1361-326-1886-599c-1075-559-1913-1395-2486-2480
		c-221-417-423-997-543-1555c-84-394-126-838-177-1870c-19-379-19-16424,0-16785c61-1184,103-1555,236-2071
		c188-730,433-1288,817-1860c554-824,1293-1478,2184-1934c576-294,1355-527,2005-599c334-37,513-51,1330-98c285-16,16095-24,16565-8
		c702,24,1371,70,1735,121c355,49,846,176,1250,322c1502,543,2755,1760,3346,3248c151,383,300,912,363,1294c35,207,74,615,101,1040
		c45,721,43,262,49,8520c4,4268,3,7963-1,8210c-17,1026-82,1926-173,2381c-116,583-318,1174-555,1630c-501,962-1243,1755-2160,2306
		c-473,285-949,483-1525,638c-512,137-790,175-1705,235c-612,41-246,39-8790,41C10628.2,50000,6887.2,49998,6771.2,49993z
		 M19446.2,44774c1240-76,2351-517,3315-1316c168-139,560-532,697-699c720-874,1148-1866,1278-2961c41-347,41-406,38-4934
		c-4-4032-5-4367-21-4510c-55-495-128-841-266-1260c-91-274-172-469-307-740c-285-570-606-1013-1063-1471
		c-444-443-891-769-1431-1043c-725-368-1453-562-2275-606c-300-17-8858-8-9015,8c-365,39-603,79-898,153
		c-844,209-1611,603-2292,1177c-161,136-506,481-642,642c-738,875-1190,1920-1312,3035c-36,329-37,455-34,4890
		c4,4724,0,4403,53,4780c149,1059,588,2037,1285,2865c138,164,471,499,635,640c936,800,2102,1273,3330,1349
		C10718.2,44785,19247.2,44786,19446.2,44774z"/>
	<path class="st1" d="M10466.2,42913c-282-23-627-95-905-189c-1160-396-2051-1332-2390-2513c-71-248-115-506-135-782
		c-14-195-13-8759,0-8955c65-913,441-1741,1085-2386c623-625,1397-991,2295-1086c185-19,8975-19,9160,0c916,97,1716,483,2340,1128
		c585,606,936,1363,1032,2229c19,177,19,9012,0,9190c-54,486-172,896-378,1307c-590,1179-1746,1955-3063,2058
		C19343.2,42926,10627.2,42926,10466.2,42913z M20442.2,41389c486-85,877-476,965-965c19-106,17-326-4-426c-99-471-449-832-906-935
		c-696-156-1384,349-1440,1059c-21,274,44,528,194,753c178,267,466,458,777,514C20130.2,41407,20335.2,41407,20442.2,41389z
		 M15286.2,40024c332-21,604-61,905-135c794-193,1498-556,2125-1094c156-134,471-457,601-616c940-1149,1330-2615,1084-4075
		c-151-899-549-1746-1153-2455c-119-139-444-461-582-576c-633-527-1344-883-2120-1063c-1154-266-2369-122-3421,405
		c-487,243-915,555-1314,954c-202,201-336,356-495,570c-927,1244-1227,2859-814,4369c135,493,369,1006,658,1444
		c291,442,701,884,1131,1218c530,413,1163,726,1806,894c356,92,664,140,1064,163C14885.2,40035,15135.2,40033,15286.2,40024z"/>
	<path class="st1" d="M14666.2,38223c-654-72-1216-304-1740-718c-132-104-398-373-504-511c-321-414-540-882-640-1370
		c-51-248-60-355-61-660c0-309,8-400,56-647c259-1331,1329-2372,2669-2597c1432-241,2841,475,3488,1771c157,314,255,629,313,1003
		c20,127,23,184,23,455c1,246-3,336-17,434c-90,626-316,1151-706,1641c-101,128-361,386-496,494c-388,309-856,534-1330,640
		c-242,55-371,68-680,71C14882.2,38231,14713.2,38228,14666.2,38223z"/>
</g>
</svg>
