<?xml version="1.0" encoding="utf-8"?>
<!-- Generator: Adobe Illustrator 27.3.0, SVG Export Plug-In . SVG Version: 6.00 Build 0)  -->
<svg version="1.1" id="Layer_1" xmlns="http://www.w3.org/2000/svg" xmlns:xlink="http://www.w3.org/1999/xlink" x="0px" y="0px"
	 viewBox="0 0 512 512" style="enable-background:new 0 0 512 512;" xml:space="preserve">
<style type="text/css">
	.st0{fill:#FFFFFF;stroke:#000000;stroke-miterlimit:10;}
	.st1{fill:#A14631;}
</style>
<rect x="90.6" y="95" class="st0" width="337.4" height="333"/>
<path class="st1" d="M235.2,216.2c-2.1-5.6-8.4-8.5-14-6.3c-2.9,1.1-5.2,3.4-6.3,6.3l-20.9,56c-1.3,3.6,0.6,7.6,4.2,8.9
	c3.6,1.3,7.5-0.5,8.9-4l3.3-10.1h28c0.4,0,0.9,0,1.3-0.1l3.4,10.2c1.3,3.6,5.3,5.5,8.9,4.2c3.6-1.3,5.5-5.3,4.2-8.9
	c0-0.1-0.1-0.1-0.1-0.2L235.2,216.2z M216.5,254.4l9.9-29.9l9.9,29.9H216.5z"/>
<path class="st1" d="M203,216.2c0-3.8-3.1-7-7-7h-42.6c-3.8,0-7,3.1-7,7c0,3.8,3.1,7,7,7h14.3v51.4c0,3.8,3.1,7,7,7s7-3.1,7-7v-51.4
	H196C199.8,223.2,203,220.1,203,216.2z"/>
<path class="st1" d="M297.1,267.1h-19.8v-50.8c0-3.8-3.1-7-7-7s-7,3.1-7,7v56.4c0,4.6,3.8,8.4,8.4,8.4H297c3.8,0,7-3.1,7-7
	S300.9,267.1,297.1,267.1L297.1,267.1z"/>
<path class="st1" d="M339,241.5l20.6-19.9c2.7-2.7,2.7-7,0.1-9.7s-6.9-2.7-9.6-0.2l-25.7,26.8v-22.2c0-4.1-3.3-7.4-7.4-7.4
	s-7.4,3.3-7.4,7.4v58.4c0,4.1,3.3,7.4,7.4,7.4s7.4-3.3,7.4-7.4v-19l4.7-4.6l20.4,27.5c2.5,3.2,7,3.7,10.2,1.3s3.7-7,1.3-10.2
	L339,241.5z"/>
<path class="st1" d="M256,0C114.6,0,0,114.6,0,256s114.6,256,256,256s256-114.6,256-256S397.4,0,256,0z M256,358.9
	c-9.6,0-19.2-0.7-28.7-2.2l-58,40.7c-1.7,1.2-4,0.8-5.1-0.9c-0.6-0.9-0.8-2-0.5-3l13.8-52.5c-40.9-20.5-68.1-56.7-68.1-97.8
	c0-64,65.7-115.8,146.7-115.8s146.7,51.9,146.7,115.8S337,358.9,256,358.9z"/>
</svg>
