<?xml version="1.0" encoding="utf-8"?>
<!-- Generator: Adobe Illustrator 27.3.0, SVG Export Plug-In . SVG Version: 6.00 Build 0)  -->
<svg version="1.1" id="Layer_1" xmlns="http://www.w3.org/2000/svg" xmlns:xlink="http://www.w3.org/1999/xlink" x="0px" y="0px"
	 viewBox="0 0 640 593.8" style="enable-background:new 0 0 640 593.8;" xml:space="preserve">
<style type="text/css">
	.st0{fill:#F9DA41;}
</style>
<path d="M262,200.6c-0.5-0.8-1.1-1.6-1.8-2.3c-1.2-1.4-2.3-2.3-3.4-3c-2-1.3-4.3-2-6.7-2.1c-1.1-0.1-1.7-0.2-2.2-0.2
	c-2.6,0-5.1,0.7-7.2,2.1c-1.7,1-3.1,2.4-4.1,4.1c-0.6,0.8-0.8,1.1-1.1,1.5c-0.7,1.2-1.3,2.5-1.7,3.9l-0.4,1.1l-54.1,118.6
	c-0.8,1.7-1.2,3.6-1.2,5.5c0,2.6,0.7,5.1,2.1,7.2c1.4,2.2,3.4,4,5.8,5.1l2.8,1.3c4,1.8,9,1.5,12.8-0.9c2.2-1.4,4-3.4,5.1-5.8
	l11-24.1h62.2l11,24.2c1.1,2.4,2.9,4.4,5.1,5.8c3.8,2.4,8.7,2.7,12.8,0.9l2.8-1.3c2.4-1.1,4.4-2.8,5.8-5.1v0l3.9-6.2l-57.4-126.2
	C263.4,203.3,262.8,201.9,262,200.6z M228.7,288.2l20-43.8l20,43.8H228.7z"/>
<path d="M157.8,218.8h32.4c3.6,0,7-1.3,9.5-3.6c1.2-1.1,2.2-2.5,2.9-3.9c0.7-1.5,1-3.1,1-4.8c0-1.7-0.4-3.3-1-4.8
	c-1-2.2-2.7-4.1-4.9-5.5c-2.2-1.4-4.8-2.1-7.5-2.1H95c-3.6,0-7,1.3-9.5,3.7c-1.2,1.1-2.2,2.4-2.9,3.9c-0.7,1.5-1.1,3.2-1.1,4.8
	c0,1.6,0.4,3.3,1.1,4.8c1,2.2,2.7,4.1,4.9,5.5c2.3,1.4,4.9,2.1,7.5,2.1h32.8v111.4c0,3.6,1.4,7,4,9.5c2.5,2.5,5.9,4,9.5,4h3
	c3.6,0,7-1.4,9.5-4c2.5-2.5,4-6,4-9.5l0,0V218.8z"/>
<path d="M430.4,323.9c-0.9-0.9-1.9-1.8-3-2.5c-2.2-1.3-4.8-2.1-7.5-2.1h-62V207.6c0-3.5-1.4-7-3.9-9.5c-2.5-2.5-6-4-9.5-4h-3.1
	c-3.6,0-7,1.4-9.5,3.9c-2.5,2.5-4,6-4,9.5v127.1l1.4,2.2c1,1.9,2.6,3.5,4.5,4.7c1.8,1.1,3.9,1.8,6.1,2c0.5,0,0.9,0.1,1.4,0.1h78.5
	c3.6,0,7-1.3,9.5-3.6c1-0.9,1.9-2,2.6-3.3h0l3.7-6.9L430.4,323.9z"/>
<path d="M556.6,320.6l-45.5-62.1L549,219c2.4-2.5,3.7-5.8,3.7-9.3c0-1.8-0.3-3.6-1-5.2c-0.7-1.7-1.8-3.2-3.1-4.5l-2.2-2.1
	c-3.8-3.7-9.8-4.7-14.5-2.7c-1.7,0.7-3.2,1.8-4.5,3.1l-55.1,57.5v-48.1c0-3.5-1.4-7-3.9-9.5c-2.5-2.5-6-4-9.5-4h-3.1
	c-3.6,0-7,1.4-9.5,3.9c-2.5,2.5-4,6-4,9.5v126.1l1.7,3.1c0.6,1.1,1.4,2.1,2.3,3c2.5,2.5,5.9,4,9.5,4h3c3.6,0,7-1.4,9.5-4
	c2.5-2.5,4-5.9,4-9.5V299l17.8-18.5l42.3,57.8c1.3,1.7,3,3.1,4.9,4.1c4.4,2.2,10,1.7,14-1.2l2.4-1.8c1.7-1.3,3.2-2.9,4.1-4.9h0
	c0.9-1.9,1.4-3.9,1.4-6C559.2,325.6,558.2,322.8,556.6,320.6z"/>
<g>
	<path class="st0" d="M320,0L320,0C143.2,0,0,114.1,0,254.9C0,344.3,57.9,423,145.5,468.5l-24.2,125.3l138.4-88.6
		c19.9,3,40.1,4.6,60.3,4.6c176.7,0,320-114.1,320-254.9C640,114.1,496.7,0,320,0z M202.6,211.3c-0.7,1.5-1.7,2.8-2.9,3.9
		c-2.6,2.3-5.9,3.6-9.5,3.6h-32.4v111.4l0,0c0,3.5-1.4,7-4,9.5c-2.5,2.5-5.9,3.9-9.5,4h-3c-3.6,0-7-1.4-9.5-4c-2.5-2.5-4-5.9-4-9.5
		V218.8H95c-2.7,0-5.3-0.7-7.5-2.1c-2.2-1.4-3.9-3.2-4.9-5.5c-0.7-1.5-1.1-3.1-1.1-4.8c0-1.6,0.4-3.3,1.1-4.8
		c0.7-1.5,1.7-2.8,2.9-3.9c2.5-2.4,5.9-3.7,9.5-3.7h95.2c2.7,0,5.3,0.7,7.5,2.1c2.2,1.3,3.9,3.2,4.9,5.5c0.7,1.5,1,3.1,1,4.8
		C203.7,208.1,203.3,209.8,202.6,211.3z M233.4,205.6l0.4-1.1c0.4-1.4,0.9-2.7,1.7-3.9c0.2-0.4,0.5-0.7,1.1-1.5
		c1.1-1.7,2.5-3.1,4.1-4.1c2.2-1.4,4.7-2.1,7.2-2.1c0.6,0,1.1,0,2.2,0.2c2.4,0.1,4.7,0.8,6.7,2.1c1.2,0.7,2.2,1.6,3.4,3
		c0.7,0.7,1.3,1.5,1.8,2.3c0.8,1.3,1.4,2.8,1.8,4.3L321.1,331l-3.9,6.2v0c-1.4,2.2-3.4,4-5.8,5.1l-2.8,1.3c-4,1.8-8.9,1.5-12.8-0.9
		c-2.2-1.4-4-3.4-5.1-5.8l-11-24.2h-62.2l-11,24.1c-1.1,2.4-2.8,4.4-5.1,5.8c-3.8,2.4-8.8,2.7-12.8,0.9l-2.8-1.3
		c-2.4-1.1-4.4-2.8-5.8-5.1c-1.4-2.2-2.1-4.7-2.1-7.2c0-1.9,0.4-3.8,1.2-5.5L233.4,205.6z M419.9,319.4c2.7,0,5.3,0.7,7.5,2.1
		c1.1,0.7,2.1,1.5,3,2.5l5.4,6l-3.7,6.9h0c-0.7,1.2-1.5,2.3-2.6,3.3c-2.6,2.3-5.9,3.6-9.5,3.6h-78.5c-0.5,0-0.9,0-1.4-0.1
		c-2.2-0.2-4.3-0.9-6.1-2c-1.9-1.2-3.5-2.8-4.5-4.7l-1.4-2.2V207.6c0-3.5,1.5-7,4-9.5c2.5-2.5,5.9-3.9,9.5-3.9h3.1
		c3.5,0,7,1.4,9.5,4c2.5,2.5,3.9,6,3.9,9.5v111.8H419.9z M557.8,334.5c-0.9,1.9-2.4,3.6-4.1,4.9l-2.4,1.8c-3.9,2.9-9.5,3.3-14,1.2
		c-1.9-1-3.6-2.4-4.9-4.1l-42.3-57.8L472.3,299v31.2c0,3.6-1.4,7-4,9.5c-2.5,2.5-5.9,3.9-9.5,4h-3c-3.6,0-7-1.4-9.5-4
		c-0.9-0.9-1.7-1.9-2.3-3l-1.7-3.1V207.6c0-3.5,1.4-7,4-9.5c2.5-2.5,6-3.9,9.5-3.9h3.1c3.5,0,7,1.4,9.5,4c2.5,2.5,3.9,6,3.9,9.5
		v48.1l55.1-57.5c1.3-1.3,2.8-2.4,4.5-3.1c4.8-2,10.7-1,14.5,2.7l2.2,2.1c1.3,1.3,2.4,2.8,3.1,4.5c0.7,1.6,1,3.4,1,5.2
		c0,3.5-1.3,6.8-3.7,9.3l-37.9,39.5l45.5,62.1c1.7,2.3,2.6,5.1,2.6,7.9C559.2,330.6,558.7,332.6,557.8,334.5L557.8,334.5z"/>
	<polygon class="st0" points="248.7,244.4 228.7,288.2 268.7,288.2 	"/>
</g>
</svg>
