<?xml version="1.0" encoding="utf-8"?>
<!-- Generator: Adobe Illustrator 27.3.0, SVG Export Plug-In . SVG Version: 6.00 Build 0)  -->
<svg version="1.1" id="Layer_1" xmlns="http://www.w3.org/2000/svg" xmlns:xlink="http://www.w3.org/1999/xlink" x="0px" y="0px"
	 viewBox="0 0 699.4 700" style="enable-background:new 0 0 699.4 700;" xml:space="preserve">
<style type="text/css">
	.st0{fill:#08FF14;}
</style>
<polygon points="408.6,350 291.4,175 156.6,175 156.6,525 291.4,525 291.4,350 408.6,525 543.4,525 543.4,175 408.6,175 "/>
<path class="st0" d="M692.4,7.4C687.3,2.5,681.5,0,675,0H25C18.5,0,12.7,2.5,7.6,7.4S0,18.2,0,25v650c0,6.8,2.5,12.6,7.6,17.6
	S18.5,700,25,700h650c6.5,0,12.3-2.5,17.4-7.4c3.7-3.6,6-7.6,7-12.1V19.5C698.4,15,696,11,692.4,7.4z M543.4,525H408.6L291.4,350
	v175H156.6V175h134.8l117.2,175V175h134.8V525z"/>
</svg>
